<?xml version="1.0" encoding="UTF-8" standalone="no"?>
<!DOCTYPE svg PUBLIC "-//W3C//DTD SVG 1.1//EN"
 "http://www.w3.org/Graphics/SVG/1.1/DTD/svg11.dtd">
<!-- Generated by graphviz version 2.40.1 (20161225.0304)
 -->
<!-- Title: detangled Pages: 1 -->
<svg width="536pt" height="404pt"
 viewBox="0.00 0.00 536.01 404.00" xmlns="http://www.w3.org/2000/svg" xmlns:xlink="http://www.w3.org/1999/xlink">
<g id="graph0" class="graph" transform="scale(1 1) rotate(0) translate(4 400)">
<title>detangled</title>
<polygon fill="#ffffff" stroke="transparent" points="-4,4 -4,-400 532.0103,-400 532.0103,4 -4,4"/>
<!-- MainA in module learn.module.a -->
<g id="node1" class="node">
<title>MainA in module learn.module.a</title>
<ellipse fill="none" stroke="#000000" cx="263.7534" cy="-306" rx="127.0228" ry="18"/>
<text text-anchor="middle" x="263.7534" y="-301.8" font-family="Times,serif" font-size="14.00" fill="#000000">MainA in module learn.module.a</text>
</g>
<!-- MainB in module learn.module.b -->
<g id="node2" class="node">
<title>MainB in module learn.module.b</title>
<ellipse fill="none" stroke="#000000" cx="127.7534" cy="-234" rx="127.5073" ry="18"/>
<text text-anchor="middle" x="127.7534" y="-229.8" font-family="Times,serif" font-size="14.00" fill="#000000">MainB in module learn.module.b</text>
</g>
<!-- MainA in module learn.module.a&#45;&gt;MainB in module learn.module.b -->
<g id="edge1" class="edge">
<title>MainA in module learn.module.a&#45;&gt;MainB in module learn.module.b</title>
<path fill="none" stroke="#000000" d="M230.8316,-288.5708C212.5082,-278.8702 189.5052,-266.6921 169.8809,-256.3028"/>
<polygon fill="#000000" stroke="#000000" points="171.3189,-253.1039 160.8434,-251.5182 168.0437,-259.2904 171.3189,-253.1039"/>
</g>
<!-- MainC in module learn.module.c -->
<g id="node3" class="node">
<title>MainC in module learn.module.c</title>
<ellipse fill="none" stroke="#000000" cx="400.7534" cy="-234" rx="127.0141" ry="18"/>
<text text-anchor="middle" x="400.7534" y="-229.8" font-family="Times,serif" font-size="14.00" fill="#000000">MainC in module learn.module.c</text>
</g>
<!-- MainA in module learn.module.a&#45;&gt;MainC in module learn.module.c -->
<g id="edge2" class="edge">
<title>MainA in module learn.module.a&#45;&gt;MainC in module learn.module.c</title>
<path fill="none" stroke="#000000" d="M296.9173,-288.5708C315.3755,-278.8702 338.5476,-266.6921 358.3161,-256.3028"/>
<polygon fill="#000000" stroke="#000000" points="360.1964,-259.2686 367.4201,-251.5182 356.9398,-253.0722 360.1964,-259.2686"/>
</g>
<!-- MainD in module learn.module.d -->
<g id="node4" class="node">
<title>MainD in module learn.module.d</title>
<ellipse fill="none" stroke="#000000" cx="263.7534" cy="-162" rx="128.4832" ry="18"/>
<text text-anchor="middle" x="263.7534" y="-157.8" font-family="Times,serif" font-size="14.00" fill="#000000">MainD in module learn.module.d</text>
</g>
<!-- MainB in module learn.module.b&#45;&gt;MainD in module learn.module.d -->
<g id="edge3" class="edge">
<title>MainB in module learn.module.b&#45;&gt;MainD in module learn.module.d</title>
<path fill="none" stroke="#000000" d="M160.6752,-216.5708C178.9987,-206.8702 202.0016,-194.6921 221.6259,-184.3028"/>
<polygon fill="#000000" stroke="#000000" points="223.4631,-187.2904 230.6634,-179.5182 220.1879,-181.1039 223.4631,-187.2904"/>
</g>
<!-- MainC in module learn.module.c&#45;&gt;MainD in module learn.module.d -->
<g id="edge4" class="edge">
<title>MainC in module learn.module.c&#45;&gt;MainD in module learn.module.d</title>
<path fill="none" stroke="#000000" d="M367.5895,-216.5708C349.1314,-206.8702 325.9593,-194.6921 306.1907,-184.3028"/>
<polygon fill="#000000" stroke="#000000" points="307.567,-181.0722 297.0867,-179.5182 304.3105,-187.2686 307.567,-181.0722"/>
</g>
<!-- MainLegacyCode in automatic module learn.module.legacycode -->
<g id="node6" class="node">
<title>MainLegacyCode in automatic module learn.module.legacycode</title>
<ellipse fill="none" stroke="#000000" cx="263.7534" cy="-90" rx="238.9407" ry="18"/>
<text text-anchor="middle" x="263.7534" y="-85.8" font-family="Times,serif" font-size="14.00" fill="#000000">MainLegacyCode in automatic module learn.module.legacycode</text>
</g>
<!-- MainD in module learn.module.d&#45;&gt;MainLegacyCode in automatic module learn.module.legacycode -->
<g id="edge5" class="edge">
<title>MainD in module learn.module.d&#45;&gt;MainLegacyCode in automatic module learn.module.legacycode</title>
<path fill="none" stroke="#000000" d="M263.7534,-143.8314C263.7534,-136.131 263.7534,-126.9743 263.7534,-118.4166"/>
<polygon fill="#000000" stroke="#000000" points="267.2535,-118.4132 263.7534,-108.4133 260.2535,-118.4133 267.2535,-118.4132"/>
</g>
<!-- MainEntryPoint in unnamed module -->
<g id="node5" class="node">
<title>MainEntryPoint in unnamed module</title>
<ellipse fill="none" stroke="#000000" cx="263.7534" cy="-378" rx="139.601" ry="18"/>
<text text-anchor="middle" x="263.7534" y="-373.8" font-family="Times,serif" font-size="14.00" fill="#000000">MainEntryPoint in unnamed module</text>
</g>
<!-- MainEntryPoint in unnamed module&#45;&gt;MainA in module learn.module.a -->
<g id="edge6" class="edge">
<title>MainEntryPoint in unnamed module&#45;&gt;MainA in module learn.module.a</title>
<path fill="none" stroke="#000000" d="M263.7534,-359.8314C263.7534,-352.131 263.7534,-342.9743 263.7534,-334.4166"/>
<polygon fill="#000000" stroke="#000000" points="267.2535,-334.4132 263.7534,-324.4133 260.2535,-334.4133 267.2535,-334.4132"/>
</g>
<!-- MainThirdPartyCode in unnamed module -->
<g id="node7" class="node">
<title>MainThirdPartyCode in unnamed module</title>
<ellipse fill="none" stroke="#000000" cx="263.7534" cy="-18" rx="158.4182" ry="18"/>
<text text-anchor="middle" x="263.7534" y="-13.8" font-family="Times,serif" font-size="14.00" fill="#000000">MainThirdPartyCode in unnamed module</text>
</g>
<!-- MainLegacyCode in automatic module learn.module.legacycode&#45;&gt;MainThirdPartyCode in unnamed module -->
<g id="edge7" class="edge">
<title>MainLegacyCode in automatic module learn.module.legacycode&#45;&gt;MainThirdPartyCode in unnamed module</title>
<path fill="none" stroke="#000000" d="M263.7534,-71.8314C263.7534,-64.131 263.7534,-54.9743 263.7534,-46.4166"/>
<polygon fill="#000000" stroke="#000000" points="267.2535,-46.4132 263.7534,-36.4133 260.2535,-46.4133 267.2535,-46.4132"/>
</g>
</g>
</svg>
