<?xml version="1.0" encoding="UTF-8" standalone="no"?>
<!DOCTYPE svg PUBLIC "-//W3C//DTD SVG 1.1//EN"
 "http://www.w3.org/Graphics/SVG/1.1/DTD/svg11.dtd">
<!-- Generated by graphviz version 2.40.1 (20161225.0304)
 -->
<!-- Title: detangled Pages: 1 -->
<svg width="288pt" height="404pt"
 viewBox="0.00 0.00 287.56 404.00" xmlns="http://www.w3.org/2000/svg" xmlns:xlink="http://www.w3.org/1999/xlink">
<g id="graph0" class="graph" transform="scale(1 1) rotate(0) translate(4 400)">
<title>detangled</title>
<polygon fill="#ffffff" stroke="transparent" points="-4,4 -4,-400 283.5587,-400 283.5587,4 -4,4"/>
<!-- a/MainA -->
<g id="node1" class="node">
<title>a/MainA</title>
<ellipse fill="none" stroke="#000000" cx="139.7793" cy="-306" rx="41.5852" ry="18"/>
<text text-anchor="middle" x="139.7793" y="-301.8" font-family="Times,serif" font-size="14.00" fill="#000000">a/MainA</text>
</g>
<!-- b/MainB -->
<g id="node2" class="node">
<title>b/MainB</title>
<ellipse fill="none" stroke="#000000" cx="89.7793" cy="-234" rx="41.6025" ry="18"/>
<text text-anchor="middle" x="89.7793" y="-229.8" font-family="Times,serif" font-size="14.00" fill="#000000">b/MainB</text>
</g>
<!-- a/MainA&#45;&gt;b/MainB -->
<g id="edge1" class="edge">
<title>a/MainA&#45;&gt;b/MainB</title>
<path fill="none" stroke="#000000" d="M127.6757,-288.5708C121.657,-279.9038 114.2649,-269.2592 107.6124,-259.6796"/>
<polygon fill="#000000" stroke="#000000" points="110.3503,-257.486 101.7715,-251.2687 104.6007,-261.4788 110.3503,-257.486"/>
</g>
<!-- c/MainC -->
<g id="node3" class="node">
<title>c/MainC</title>
<ellipse fill="none" stroke="#000000" cx="190.7793" cy="-234" rx="41.1093" ry="18"/>
<text text-anchor="middle" x="190.7793" y="-229.8" font-family="Times,serif" font-size="14.00" fill="#000000">c/MainC</text>
</g>
<!-- a/MainA&#45;&gt;c/MainC -->
<g id="edge2" class="edge">
<title>a/MainA&#45;&gt;c/MainC</title>
<path fill="none" stroke="#000000" d="M152.125,-288.5708C158.2641,-279.9038 165.8041,-269.2592 172.5896,-259.6796"/>
<polygon fill="#000000" stroke="#000000" points="175.6232,-261.452 178.5473,-251.2687 169.911,-257.4059 175.6232,-261.452"/>
</g>
<!-- d/MainD -->
<g id="node4" class="node">
<title>d/MainD</title>
<ellipse fill="none" stroke="#000000" cx="139.7793" cy="-162" rx="42.0784" ry="18"/>
<text text-anchor="middle" x="139.7793" y="-157.8" font-family="Times,serif" font-size="14.00" fill="#000000">d/MainD</text>
</g>
<!-- b/MainB&#45;&gt;d/MainD -->
<g id="edge3" class="edge">
<title>b/MainB&#45;&gt;d/MainD</title>
<path fill="none" stroke="#000000" d="M101.8829,-216.5708C107.9017,-207.9038 115.2938,-197.2592 121.9463,-187.6796"/>
<polygon fill="#000000" stroke="#000000" points="124.958,-189.4788 127.7872,-179.2687 119.2084,-185.486 124.958,-189.4788"/>
</g>
<!-- c/MainC&#45;&gt;d/MainD -->
<g id="edge4" class="edge">
<title>c/MainC&#45;&gt;d/MainD</title>
<path fill="none" stroke="#000000" d="M178.4336,-216.5708C172.2945,-207.9038 164.7546,-197.2592 157.969,-187.6796"/>
<polygon fill="#000000" stroke="#000000" points="160.6476,-185.4059 152.0113,-179.2687 154.9354,-189.452 160.6476,-185.4059"/>
</g>
<!-- legacycode/MainLegacyCode -->
<g id="node6" class="node">
<title>legacycode/MainLegacyCode</title>
<ellipse fill="none" stroke="#000000" cx="139.7793" cy="-90" rx="115.8776" ry="18"/>
<text text-anchor="middle" x="139.7793" y="-85.8" font-family="Times,serif" font-size="14.00" fill="#000000">legacycode/MainLegacyCode</text>
</g>
<!-- d/MainD&#45;&gt;legacycode/MainLegacyCode -->
<g id="edge5" class="edge">
<title>d/MainD&#45;&gt;legacycode/MainLegacyCode</title>
<path fill="none" stroke="#000000" d="M139.7793,-143.8314C139.7793,-136.131 139.7793,-126.9743 139.7793,-118.4166"/>
<polygon fill="#000000" stroke="#000000" points="143.2794,-118.4132 139.7793,-108.4133 136.2794,-118.4133 143.2794,-118.4132"/>
</g>
<!-- entrypoint/MainEntryPoint -->
<g id="node5" class="node">
<title>entrypoint/MainEntryPoint</title>
<ellipse fill="none" stroke="#000000" stroke-width="2" cx="139.7793" cy="-378" rx="105.8078" ry="18"/>
<text text-anchor="middle" x="139.7793" y="-373.8" font-family="Times,serif" font-size="14.00" fill="#000000">entrypoint/MainEntryPoint</text>
</g>
<!-- entrypoint/MainEntryPoint&#45;&gt;a/MainA -->
<g id="edge6" class="edge">
<title>entrypoint/MainEntryPoint&#45;&gt;a/MainA</title>
<path fill="none" stroke="#000000" d="M139.7793,-359.8314C139.7793,-352.131 139.7793,-342.9743 139.7793,-334.4166"/>
<polygon fill="#000000" stroke="#000000" points="143.2794,-334.4132 139.7793,-324.4133 136.2794,-334.4133 143.2794,-334.4132"/>
</g>
<!-- thirdpartycode/MainThirdPartyCode -->
<g id="node7" class="node">
<title>thirdpartycode/MainThirdPartyCode</title>
<ellipse fill="none" stroke="#000000" cx="139.7793" cy="-18" rx="139.559" ry="18"/>
<text text-anchor="middle" x="139.7793" y="-13.8" font-family="Times,serif" font-size="14.00" fill="#000000">thirdpartycode/MainThirdPartyCode</text>
</g>
<!-- legacycode/MainLegacyCode&#45;&gt;thirdpartycode/MainThirdPartyCode -->
<g id="edge7" class="edge">
<title>legacycode/MainLegacyCode&#45;&gt;thirdpartycode/MainThirdPartyCode</title>
<path fill="none" stroke="#000000" d="M139.7793,-71.8314C139.7793,-64.131 139.7793,-54.9743 139.7793,-46.4166"/>
<polygon fill="#000000" stroke="#000000" points="143.2794,-46.4132 139.7793,-36.4133 136.2794,-46.4133 143.2794,-46.4132"/>
</g>
</g>
</svg>
