<?xml version="1.0" encoding="UTF-8" standalone="no"?>
<!DOCTYPE svg PUBLIC "-//W3C//DTD SVG 1.1//EN"
 "http://www.w3.org/Graphics/SVG/1.1/DTD/svg11.dtd">
<!-- Generated by graphviz version 2.40.1 (20161225.0304)
 -->
<!-- Title: modules Pages: 1 -->
<svg width="190pt" height="188pt"
 viewBox="0.00 0.00 189.97 188.00" xmlns="http://www.w3.org/2000/svg" xmlns:xlink="http://www.w3.org/1999/xlink">
<g id="graph0" class="graph" transform="scale(1 1) rotate(0) translate(4 184)">
<title>modules</title>
<polygon fill="#ffffff" stroke="transparent" points="-4,4 -4,-184 185.9721,-184 185.9721,4 -4,4"/>
<!-- unnamed module -->
<g id="node1" class="node">
<title>unnamed module</title>
<ellipse fill="none" stroke="#000000" cx="110.7124" cy="-162" rx="71.0203" ry="18"/>
<text text-anchor="middle" x="110.7124" y="-157.8" font-family="Times,serif" font-size="14.00" fill="#000000">unnamed module</text>
</g>
<!-- module -->
<g id="node2" class="node">
<title>module</title>
<ellipse fill="none" stroke="#000000" cx="36.7124" cy="-90" rx="36.7663" ry="18"/>
<text text-anchor="middle" x="36.7124" y="-85.8" font-family="Times,serif" font-size="14.00" fill="#000000">module</text>
</g>
<!-- unnamed module&#45;&gt;module -->
<g id="edge1" class="edge">
<title>unnamed module&#45;&gt;module</title>
<path fill="none" stroke="#000000" d="M92.7991,-144.5708C83.1615,-135.1937 71.1447,-123.5016 60.709,-113.3481"/>
<polygon fill="#000000" stroke="#000000" points="63.0544,-110.7467 53.4464,-106.2817 58.1729,-115.7638 63.0544,-110.7467"/>
</g>
<!-- automatic module -->
<g id="node3" class="node">
<title>automatic module</title>
<ellipse fill="none" stroke="#000000" cx="73.7124" cy="-18" rx="73.9254" ry="18"/>
<text text-anchor="middle" x="73.7124" y="-13.8" font-family="Times,serif" font-size="14.00" fill="#000000">automatic module</text>
</g>
<!-- unnamed module&#45;&gt;automatic module -->
<g id="edge2" class="edge">
<title>unnamed module&#45;&gt;automatic module</title>
<path fill="none" stroke="#000000" d="M101.4573,-144.0535C92.6483,-119.4774 80.9672,-75.1008 75.4515,-46.0974"/>
<polygon fill="#000000" stroke="#000000" points="78.8862,-45.4199 73.7151,-36.1727 71.991,-46.6263 78.8862,-45.4199"/>
</g>
<!-- module&#45;&gt;automatic module -->
<g id="edge3" class="edge">
<title>module&#45;&gt;automatic module</title>
<path fill="none" stroke="#000000" d="M40.0967,-71.8314C43.5316,-63.5829 48.4328,-53.6635 53.5022,-44.5992"/>
<polygon fill="#000000" stroke="#000000" points="56.5546,-46.3129 58.5796,-35.9134 50.5113,-42.7802 56.5546,-46.3129"/>
</g>
<!-- automatic module&#45;&gt;unnamed module -->
<g id="edge5" class="edge">
<title>automatic module&#45;&gt;unnamed module</title>
<path fill="none" stroke="#000000" d="M83.0187,-36.0896C91.8167,-60.6805 103.4551,-104.905 108.9639,-133.8531"/>
<polygon fill="#000000" stroke="#000000" points="105.5267,-134.5161 110.6995,-143.7623 112.4217,-133.3084 105.5267,-134.5161"/>
</g>
<!-- automatic module&#45;&gt;module -->
<g id="edge4" class="edge">
<title>automatic module&#45;&gt;module</title>
<path fill="none" stroke="#000000" d="M70.3475,-36.1222C66.748,-44.773 61.5306,-55.2697 56.1961,-64.6918"/>
<polygon fill="#000000" stroke="#000000" points="53.1816,-62.9135 51.0947,-73.3008 59.2037,-66.482 53.1816,-62.9135"/>
</g>
</g>
</svg>
